<?xml version="1.0" encoding="UTF-8"?>
<svg width="752pt" height="752pt" version="1.1" viewBox="0 0 752 752" xmlns="http://www.w3.org/2000/svg">
 <path d="m494.4 405.6c-6.2305 0.0625-12.434 0.80859-18.5 2.2188-1.0859-2.3945-2.3242-4.7188-3.6992-6.957-7.0273-11.598-15.758-22.074-25.902-31.078-15.07-13.527-32.469-24.207-51.352-31.523 15.922-21.445 24.812-47.293 25.453-73.996v-4.4414c-0.035157-3.6719-0.38281-7.3359-1.0352-10.949-2.9414-20.078-12.043-38.746-26.047-53.426-16.125-16.859-38.387-26.469-61.715-26.641-21.742 0.023437-42.641 8.4531-58.309 23.531-16.566 15.605-27.059 36.582-29.598 59.199-0.18359 2.3633-0.18359 4.7383 0 7.1016-0.13281 1.8242-0.13281 3.6562 0 5.4766 0.64063 26.703 9.5312 52.551 25.453 73.996-31.723 11.879-58.766 33.68-77.105 62.16-14.945 22.406-23.023 48.691-23.234 75.625v50.465c0 22.938 17.316 44.398 46.176 55.645 1.7773 0.75781 3.6875 1.1602 5.625 1.1836h221.99-0.003906c1.8789 0.027344 3.7383-0.32422 5.4766-1.0352 4.1367-1.6719 8.1445-3.6523 11.988-5.918 10.891 4.5 22.547 6.8633 34.336 6.9531 31.723 0 61.035-16.922 76.898-44.398 15.863-27.473 15.863-61.32 0-88.793-15.863-27.477-45.176-44.398-76.898-44.398zm-221.99-147.25v-3.1094c1.7578-16.137 9.332-31.078 21.309-42.031 10.254-9.625 23.824-14.93 37.887-14.797 15.336 0.11328 29.949 6.5352 40.402 17.758 10.07 10.121 16.652 23.184 18.797 37.293 0.22656 2.3164 0.22656 4.6445 0 6.957v1.7773 1.7773-0.003906c-0.39844 28.395-13.418 55.137-35.52 72.961l-5.4766 3.5508h-0.88672v0.003906c-10.387 3.1719-21.445 3.4297-31.965 0.73828l-3.8477-1.332c-1.793-0.97656-3.5234-2.0664-5.1797-3.2539-22.023-17.762-35.035-44.379-35.52-72.668v-1.625c0.14453-1.3281 0.14453-2.668 0-3.9961zm155.84 176.85c-2.082 2.2344-4.0117 4.6055-5.7695 7.1055-0.88672 1.1836-1.6289 2.5156-2.5156 3.8477-1.4727 2.1797-2.8086 4.457-3.9961 6.8047l-2.2188 4.293c-1.0352 2.3672-1.9258 4.8828-2.8125 7.25-0.63281 1.5-1.1758 3.0312-1.6289 4.5898-0.73828 2.6641-1.332 5.4766-1.9258 8.2891-0.31641 1.3164-0.5625 2.6484-0.73828 3.9961-0.66016 4.3086-1.0039 8.6602-1.0352 13.023 0.054688 4.957 0.5 9.9062 1.332 14.797l0.88672 4.1445c0.76172 3.5625 1.75 7.0703 2.9609 10.508l1.332 3.8477c1.7617 4.4141 3.8906 8.6719 6.3633 12.727 0.35547 0.69922 0.80469 1.3438 1.332 1.9258 2.1992 3.375 4.5703 6.6328 7.1016 9.7656l1.332 1.6289h-204.53c-15.539-7.1055-25.305-17.609-25.305-27.379v-50.465c0.035156-21.02 6.1523-41.578 17.609-59.199 17.383-26.363 43.633-45.633 73.996-54.312 3.707 2.0234 7.5664 3.7578 11.543 5.1797 3.7305 1.9688 7.6445 3.5547 11.691 4.7344 6.1406 1.8984 12.52 2.8984 18.945 2.9609 7.668-0.082031 15.27-1.4297 22.496-3.9961 2.3672-0.88672 4.8828-2.2188 7.3984-3.4023 4.2266-1.5117 8.332-3.3438 12.285-5.4766 19.52 5.875 37.508 15.984 52.684 29.598 8.0586 7.2578 15.035 15.629 20.719 24.863l1.1836 1.9258c-2.2617 1.3906-4.4375 2.9258-6.5117 4.5859l-2.3672 1.6289c-3.2617 2.5234-6.332 5.2969-9.1758 8.2852zm66.156 118.39c-9.8242 0.039062-19.496-2.4062-28.121-7.1016-13.426-7.25-23.531-19.406-28.211-33.926-4.6836-14.52-3.5781-30.289 3.0859-44.016 6.6641-13.723 18.367-24.348 32.672-29.652 6.5703-2.4922 13.547-3.7461 20.574-3.6992 21.148 0 40.691 11.281 51.266 29.598 10.574 18.316 10.574 40.883 0 59.199-10.574 18.316-30.117 29.598-51.266 29.598zm44.398-59.199-0.003906 0.003907c0 3.9219-1.5586 7.6875-4.332 10.465-2.7773 2.7734-6.5391 4.332-10.465 4.332h-14.801v14.801c0 5.2852-2.8203 10.172-7.3984 12.816s-10.223 2.6445-14.801 0-7.3984-7.5312-7.3984-12.816v-14.801h-14.801c-5.2852 0-10.172-2.8203-12.816-7.3984s-2.6445-10.223 0-14.801 7.5312-7.3984 12.816-7.3984h14.801v-14.801c0-5.2852 2.8203-10.172 7.3984-12.816s10.223-2.6445 14.801 0 7.3984 7.5312 7.3984 12.816v14.801h14.801c3.9258 0 7.6875 1.5586 10.465 4.3359 2.7734 2.7734 4.332 6.5391 4.332 10.465z"/>
</svg>
