<?xml version="1.0" encoding="UTF-8"?>
<svg width="752pt" height="752pt" version="1.1" viewBox="0 0 752 752" xmlns="http://www.w3.org/2000/svg">
 <g>
  <path d="m331.6 390.8c15.703 0 30.758-6.2383 41.859-17.34 11.102-11.102 17.34-26.156 17.34-41.859 0-15.699-6.2383-30.754-17.34-41.855-11.102-11.105-26.156-17.34-41.859-17.34-15.699 0-30.754 6.2344-41.855 17.34-11.105 11.102-17.34 26.156-17.34 41.855 0.015625 15.695 6.2578 30.746 17.355 41.844 11.098 11.098 26.145 17.34 41.84 17.355zm0-88.797c7.8516 0 15.379 3.1172 20.93 8.668s8.6719 13.082 8.6719 20.93c0 7.8516-3.1211 15.379-8.6719 20.93s-13.078 8.6719-20.93 8.6719c-7.8477 0-15.379-3.1211-20.93-8.6719s-8.668-13.078-8.668-20.93c0.011719-7.8438 3.1328-15.367 8.6797-20.918 5.5508-5.5469 13.074-8.668 20.918-8.6797z"/>
  <path d="m562.83 428.84c9.9102-13.273 12.852-30.496 7.9062-46.305l-9.3945-30.566v-0.003906c-4.4102-14.496-13.379-27.184-25.57-36.184-12.191-9-26.961-13.828-42.113-13.773h-66.406c-5.2852 0-10.172 2.8203-12.816 7.3984-2.6445 4.582-2.6445 10.223 0 14.801 2.6445 4.5781 7.5312 7.3984 12.816 7.3984h66.406c8.8203-0.027343 17.41 2.7852 24.504 8.0195 7.0938 5.2383 12.312 12.625 14.879 21.059l9.3945 30.555c2.1016 6.8359 0.83594 14.262-3.4102 20.012-4.2461 5.7539-10.969 9.1484-18.121 9.1523h-135.7c-0.41797 0-0.76953 0.20312-1.1836 0.23828-0.99219-0.039063-1.9531-0.23828-2.9648-0.23828h-92.793 0.003906c-16.449-0.058594-32.473 5.1875-45.703 14.957-13.23 9.7695-22.953 23.547-27.73 39.285l-11.051 35.887c-5.2344 17.031-2.0742 35.539 8.5117 49.871 10.586 14.332 27.344 22.789 45.16 22.793h154.4c17.82 0 34.578-8.4609 45.168-22.793 10.586-14.332 13.746-32.836 8.5117-49.871l-11.043-35.887c-2.7969-8.9336-7.1992-17.285-12.996-24.641h79.402c16.559 0.074219 32.152-7.7969 41.926-21.164zm-129.61 113.97c-4.9805 6.8125-12.922 10.824-21.359 10.785h-154.4c-8.4258 0-16.352-4-21.359-10.781-5.0039-6.7773-6.4961-15.531-4.0156-23.586l11.043-35.887h-0.003906c2.9336-9.6758 8.9102-18.145 17.043-24.152 8.1328-6.0078 17.984-9.2305 28.098-9.1875h92.793-0.003907c10.113-0.042969 19.965 3.1797 28.098 9.1875 8.1328 6.0078 14.109 14.477 17.043 24.152l11.043 35.887c2.5234 8.0508 1.0312 16.824-4.0156 23.586z"/>
  <path d="m457.4 272.41c13.738 0 26.914-5.457 36.625-15.172 9.7148-9.7148 15.172-22.891 15.172-36.625 0-13.738-5.457-26.914-15.172-36.629-9.7109-9.7148-22.887-15.172-36.625-15.172-13.738 0-26.914 5.457-36.629 15.172-9.7109 9.7148-15.168 22.891-15.168 36.629 0.015626 13.73 5.4766 26.895 15.188 36.605 9.7109 9.7109 22.875 15.176 36.609 15.191zm0-73.996c5.8867 0 11.535 2.3359 15.695 6.5 4.1641 4.1641 6.5039 9.8086 6.5039 15.699 0 5.8867-2.3398 11.531-6.5039 15.695-4.1602 4.1641-9.8086 6.5039-15.695 6.5039-5.8867 0-11.535-2.3398-15.699-6.5039-4.1602-4.1641-6.5-9.8086-6.5-15.695 0.007812-5.8867 2.3477-11.531 6.5078-15.691 4.1641-4.1602 9.8047-6.5039 15.691-6.5078z"/>
  <path d="m168.81 228.01c0 3.9258 1.5586 7.6875 4.3359 10.465 2.7734 2.7734 6.5391 4.3359 10.465 4.3359h29.598v29.598c0 5.2852 2.8203 10.172 7.4023 12.816 4.5781 2.6445 10.219 2.6445 14.797 0 4.5781-2.6445 7.4023-7.5312 7.4023-12.816v-29.598h29.598c5.2852 0 10.172-2.8242 12.816-7.4023 2.6445-4.5781 2.6445-10.219 0-14.797-2.6445-4.582-7.5312-7.4023-12.816-7.4023h-29.598v-29.598c0-5.2891-2.8242-10.172-7.4023-12.816s-10.219-2.6445-14.797 0c-4.582 2.6445-7.4023 7.5273-7.4023 12.816v29.598h-29.598c-3.9258 0-7.6914 1.5586-10.465 4.3359-2.7773 2.7734-4.3359 6.5391-4.3359 10.465z"/>
 </g>
</svg>
